# xmcd
#
# Track frame offsets:
#	150
#	17025
#	31502
#	48701
#	63965
#	75609
#	95752
#	109087
#	128019
#	143355
#	163988
#
# Disc length: 2519 seconds
#
# Revision: 0
# Processed by: cddbd v1.5.1PL2 Copyright (c) Steve Scherf et al.
# Submitted via: EasyCDDAExtractor 10.0.0.1
#
DISCID=8709d50b
DTITLE=Roger Hoover and the  Whiskeyhounds - Jukebox Manifesto
DYEAR=2006
DGENRE=
TTITLE0=Inside His Devil Grin
TTITLE1=Cobblestone Road
TTITLE2=Pick Up I'm Calling
TTITLE3=Roger Hoover's Dream
TTITLE4=Down by the Riverside
TTITLE5=Stone on the Ground
TTITLE6=Gewgaw Girl
TTITLE7=Drifter
TTITLE8=Anna Lee
TTITLE9=Roadside Cafe
TTITLE10=Inamorato
EXTD=
EXTT0=
EXTT1=
EXTT2=
EXTT3=
EXTT4=
EXTT5=
EXTT6=
EXTT7=
EXTT8=
EXTT9=
EXTT10=
PLAYORDER=
